<svg width="1512" height="982" viewBox="0 0 1512 982" fill="none" xmlns="http://www.w3.org/2000/svg">
<rect width="1512" height="982" fill="url(#paint0_radial_2_793)"/>
<g clip-path="url(#clip0_2_793)">
<path d="M-292 0H1953V58.9456V116.862V670.482V826.654V982H1196.25H-292V869.495V760.815V690.65V0Z" fill="url(#paint1_linear_2_793)"/>
<path d="M586.226 749.762C685.111 738.932 776.863 729.404 877.041 734.771C993.55 741.014 1105.05 764.23 1217.25 795.135C1256.89 806.235 1296.35 817.929 1335.62 830.21C1379.05 843.429 1419.37 855.823 1464.76 861.303C1506.7 866.37 1529.31 852.287 1569.84 846.284C1601.55 841.586 1635.79 836.014 1667.7 833.005C1732.81 826.606 1798.22 823.474 1863.65 823.623C1893.66 823.809 1924.1 826.583 1953 826.654V982H1196.25H-292V869.495C-285.026 866.703 -245.407 866.042 -235.44 865.617C-191.6 863.573 -147.733 862.136 -103.853 861.309C-55.2475 860.028 2.81116 859.116 51.3622 863.365L51.4426 862.947C53.7198 859.953 99.9264 848.805 107.003 846.984C202.049 822.032 297.853 800.063 394.274 781.108C441.815 772.041 489.95 763.489 537.849 756.491C553.95 754.138 570.14 752.215 586.226 749.762Z" fill="url(#paint2_linear_2_793)"/>
<path d="M-292 869.495C-285.026 866.703 -245.407 866.042 -235.44 865.617C-191.6 863.573 -147.733 862.136 -103.853 861.309C-55.2475 860.027 2.81116 859.116 51.3622 863.365C80.5545 865.426 110.434 868.8 138.762 876.216C173.723 885.368 205.501 897.126 241.774 900.457C287.502 904.657 331.441 895.451 376.384 888.291C452.744 876.927 529.823 867.295 607.193 870.806C620.06 871.391 632.931 872.091 645.805 872.649C743.166 877.475 840.208 887.392 936.532 902.356C981.068 909.088 1030.79 916.289 1074.3 927.224C1104.59 934.838 1173.32 962.604 1196.25 982H-292V869.495Z" fill="url(#paint3_linear_2_793)"/>
<path d="M-292 690.65C-274.734 689.968 -257.685 686.257 -240.675 684.947C-165.248 679.133 -94.649 656.052 -21.0873 641.249C57.9379 626.136 137.495 613.944 217.419 604.7C337.572 590.116 520.563 572.659 639.527 595.592C684.452 605.783 728.874 618.077 772.646 632.433C852.414 657.966 936.88 688.294 1020.74 694.198C1050.89 696.32 1078.62 693.554 1108.5 689.535C1219.11 679.86 1332.5 698.366 1441.27 717.475C1505.84 728.822 1569.23 747.372 1635.5 739.233C1674.33 734.464 1711.43 724.44 1749.47 715.855C1817.51 701.277 1884.83 684.34 1953 670.482V826.654C1924.1 826.582 1893.66 823.809 1863.65 823.623C1798.22 823.474 1732.81 826.606 1667.7 833.005C1635.79 836.014 1601.55 841.586 1569.84 846.284C1529.31 852.287 1506.7 866.37 1464.76 861.303C1419.37 855.823 1379.05 843.428 1335.62 830.209C1296.35 817.929 1256.89 806.235 1217.25 795.135C1105.05 764.23 993.55 741.014 877.041 734.771C776.863 729.404 685.111 738.932 586.226 749.761C570.14 752.215 553.95 754.138 537.849 756.491C489.95 763.489 441.815 772.041 394.274 781.108C297.853 800.063 202.049 822.032 107.003 846.984C99.9264 848.805 53.7198 859.953 51.4426 862.947L51.3622 863.365C2.81116 859.116 -55.2475 860.027 -103.853 861.309C-147.733 862.136 -191.6 863.573 -235.44 865.617C-245.407 866.042 -285.026 866.703 -292 869.495V760.815V690.65Z" fill="url(#paint4_linear_2_793)"/>
<path d="M-292 760.815C-227.512 772.973 -157.369 789.636 -91.473 784.628C-59.8486 782.226 -14.174 765.546 17.9649 757.028C66.8507 744.369 116.258 733.817 166.05 725.401C202.963 719.313 280.715 710.968 315.724 716.993C354.081 723.592 569.7 737.928 586.226 749.761C570.14 752.215 553.95 754.138 537.849 756.491C489.95 763.489 441.815 772.04 394.274 781.108C297.853 800.062 202.049 822.032 107.003 846.984C99.9264 848.804 53.7198 859.953 51.4426 862.947L51.3622 863.365C2.81116 859.115 -55.2475 860.027 -103.853 861.309C-147.733 862.136 -191.6 863.572 -235.44 865.617C-245.407 866.042 -285.026 866.703 -292 869.495V760.815Z" fill="#B99C7B"/>
<path d="M639.527 595.592C641.606 567.656 648.829 539.024 662.052 514.138C708.998 425.786 795.207 373.989 896.485 381.449C960.03 386.652 1018.9 416.906 1060.11 465.544C1101.32 514.124 1121.46 577.124 1116.08 640.596C1114.61 659.315 1110.89 672.272 1108.5 689.535C1078.62 693.553 1050.89 696.32 1020.74 694.198C936.88 688.294 852.414 657.966 772.646 632.433C728.874 618.077 684.452 605.783 639.527 595.592Z" fill="#FBF0E3"/>
<path d="M1518.98 89.2594C1518.67 89.1349 1518.37 89.0127 1518.06 88.8931C1514.63 87.5691 1512.68 86.5196 1509.04 85.6903C1503.39 84.4004 1477.66 81.7356 1474.42 79.1086L1475.02 77.3028C1501.18 59.2681 1644.91 66.1864 1684.86 61.272C1717.98 57.9007 1752.84 47.0395 1786.35 48.8022C1841.69 51.7135 1897.72 54.9753 1953 58.9456V116.861C1936.31 121.298 1913.17 121.697 1895.73 123.229C1851.95 127.076 1806.58 126.169 1762.99 129.139C1781.69 133.451 1813.59 138.004 1826.62 153.136C1804.22 157.821 1786.29 160.339 1763.26 160.99C1738.42 161.622 1713.56 161.08 1688.77 159.365C1677.34 158.483 1664.35 155.739 1653.2 155.673C1612.42 155.434 1571.72 153.683 1530.97 153.347C1525.28 153.3 1514.11 153.661 1511.25 148.248C1514.83 144.696 1539.55 146.761 1547.12 146.04C1593.89 141.584 1639.8 134.681 1685.41 123.881C1676.73 120.071 1666.22 117.508 1657.73 113.215C1634.93 101.709 1611.27 101.912 1586.26 101.926C1556.85 120.214 1455.96 107.667 1418.54 106.296C1403.95 99.8146 1318.63 101.369 1312.02 96.3998C1321.65 91.239 1358.05 92.8465 1369.52 93.7659C1386.2 95.102 1411 92.0444 1428.36 90.968C1460.53 91.1992 1486.91 91.2392 1518.98 89.2594Z" fill="#F2BC9D"/>
<path d="M1418.54 106.296C1405.85 107.023 1289.89 98.8593 1286.5 96.1471C1295.24 90.4802 1414.23 88.9331 1428.36 90.968C1411 92.0444 1386.2 95.102 1369.52 93.7659C1358.05 92.8465 1321.65 91.239 1312.02 96.3998C1318.63 101.369 1403.95 99.8146 1418.54 106.296Z" fill="#FBF0E3"/>
<path d="M33.0924 333.634C66.4341 330.957 110.213 335.021 143.596 339.486C155.04 341.017 168.457 347.586 181.62 349.174C215.791 353.298 249.925 353.542 283.878 358.629C292.692 359.95 303.798 360.996 312.243 363.355L312.672 364.88C307.799 370.373 292.068 373.211 289.62 376.72C314.523 379.781 343.278 377.865 368.73 379.563C427.803 383.505 487.18 384.549 546.309 386.706C571.053 387.609 600.332 388.619 624.713 391.919C604.176 396.713 582.965 395.483 562.185 396.25C531.895 397.368 500.207 397.143 470.112 399.798L268.269 402.664C219.533 403.124 175.702 405.714 127.33 397.618C116.282 395.768 101.476 397.773 89.9759 396.243C78.5112 394.556 66.9895 392.335 55.5365 391.111C43.7386 389.85 -30.6811 392.725 -33.347 383.825C-28.9447 381.826 19.8475 375.614 29.6518 373.061C51.9396 367.258 76.7837 362.089 99.4544 357.626C81.8071 353.594 -2.99131 345.644 -7.60116 341.585C-3.59933 337.619 25.5988 334.597 33.0924 333.634Z" fill="#F2BC9D"/>
<path d="M1544.72 385.169C1558.18 383.11 1599.7 381.719 1607.61 395.674C1638.16 401.433 1669.48 400.188 1700.39 402.868C1714.7 404.111 1841.52 420.318 1844.74 422.84C1845.38 423.355 1845.28 424.861 1845.37 425.688C1843.02 430.948 1835.62 431.247 1830.64 432.853C1795.51 444.171 1755.76 439.484 1719.51 441.994C1630.3 448.168 1541.12 447.855 1451.78 444.903C1438.8 443.465 1424.09 443.586 1410.97 443.113C1355.77 441.126 1300.56 443.775 1245.53 438.02C1236.19 437.046 1199.68 437.626 1193.08 432.624C1198.47 426.285 1248.59 426.98 1258.54 426.727L1335.76 425.184C1378.54 424.747 1421.74 421.107 1464.65 421.043C1485.19 421.012 1507 415.414 1527.66 415.263C1533.17 415.222 1539.27 414.463 1544.79 413.9C1535.6 411.009 1500.19 409.224 1501.82 397.378C1509.79 388.114 1532.69 386.619 1544.72 385.169Z" fill="#F2BC9D"/>
<path d="M-106.429 91.4107C-106.02 91.3638 -105.611 91.3105 -105.2 91.2799C-84.7818 89.7637 10.0709 92.2438 22.6523 103.972C24.0291 105.255 23.7558 105.717 23.8332 107.513C19.2658 113.837 8.90306 114.792 1.21072 116.616C16.7562 121.642 37.2857 123.497 53.3427 125.476C72.412 127.826 132.629 125.703 145.622 135.791L145.372 139.578C148.836 143.469 266.016 141.242 286.519 147.408C247.253 147.807 205.895 152.737 166.489 156.483C133.831 157.194 118.274 159.347 83.8008 157.775C67.0846 157.019 50.3815 156.036 33.6931 154.823C14.0494 153.255 -7.23433 150.021 -26.7027 153.911C-70.5869 162.638 -115.306 162.049 -159.817 160.462C-179.485 159.761 -210.779 163.313 -227.14 152.422C-206.049 132.671 -153.429 131.289 -123.795 120.134C-124.989 118.571 -129.409 112.902 -129.638 111.769C-131.779 101.154 -131.246 105.24 -138.584 99.0468L-138.47 97.1364C-133.309 92.889 -113.867 92.0924 -106.429 91.4107Z" fill="#F2BC9D"/>
</g>
<defs>
<radialGradient id="paint0_radial_2_793" cx="0" cy="0" r="1" gradientUnits="userSpaceOnUse" gradientTransform="translate(756 1.4182e-05) rotate(90) scale(299.847 1031.24)">
<stop stop-color="white"/>
<stop offset="0.466346" stop-color="#FFF0D1"/>
<stop offset="1" stop-color="#F2D1B3"/>
</radialGradient>
<linearGradient id="paint1_linear_2_793" x1="830.588" y1="739.944" x2="829.398" y2="1.48625" gradientUnits="userSpaceOnUse">
<stop stop-color="#F3BF9C"/>
<stop offset="1" stop-color="#F7EBDD"/>
</linearGradient>
<linearGradient id="paint2_linear_2_793" x1="1052.46" y1="1135.02" x2="972.591" y2="680.264" gradientUnits="userSpaceOnUse">
<stop stop-color="#E6926B"/>
<stop offset="1" stop-color="#E9B293"/>
</linearGradient>
<linearGradient id="paint3_linear_2_793" x1="447.997" y1="857.056" x2="449.079" y2="983.908" gradientUnits="userSpaceOnUse">
<stop stop-color="#C77660"/>
<stop offset="1" stop-color="#C58D82"/>
</linearGradient>
<linearGradient id="paint4_linear_2_793" x1="932.672" y1="1096.57" x2="748.487" y2="412.358" gradientUnits="userSpaceOnUse">
<stop stop-color="#978488"/>
<stop offset="1" stop-color="#CEB8B0"/>
</linearGradient>
<clipPath id="clip0_2_793">
<rect width="2245" height="982" fill="white" transform="translate(-292)"/>
</clipPath>
</defs>
</svg>
