<?xml version="1.0" encoding="UTF-8" standalone="no"?><!DOCTYPE svg PUBLIC "-//W3C//DTD SVG 1.1//EN" "http://www.w3.org/Graphics/SVG/1.1/DTD/svg11.dtd"><svg width="100%" height="100%" viewBox="0 0 2560 1440" version="1.1" xmlns="http://www.w3.org/2000/svg" xmlns:xlink="http://www.w3.org/1999/xlink" xml:space="preserve" xmlns:serif="http://www.serif.com/" style="fill-rule:evenodd;clip-rule:evenodd;stroke-linejoin:round;stroke-miterlimit:2;"><rect id="Desctop" x="0" y="0" width="2560" height="1440" style="fill:none;"/><clipPath id="_clip1"><rect id="Desctop1" serif:id="Desctop" x="0" y="0" width="2560" height="1440"/></clipPath><g clip-path="url(#_clip1)"><g><rect x="-1.2518" y="0" width="2561.2518" height="1440" style="fill:url(#_Linear2);fill-rule:nonzero;"/><path d="M859.3096,1090.3376c120.722,-14.6128 284.5609,-20.7433 431.4345,-12.8726c170.8157,9.1543 334.2814,43.1979 498.7864,88.5171c58.1143,16.2771 115.9714,33.4243 173.55,51.4329c63.6643,19.3843 114.955,36.598 181.5074,44.4943c62.6163,7.4293 103.5804,-11.0038 161.8854,-20.9229c46.3209,-7.8802 97.3558,-14.94 143.4643,-19.4721c36.3039,-3.5685 67.0232,-2.9124 109.0763,-8.6255l0.9861,227.1112l-2560,0l-1.2518,-180.6353c0,0 112.6073,-4.1116 163.0316,-17.3518c139.3479,-36.5893 279.8079,-68.805 421.1721,-96.6c69.7007,-13.2964 205.9004,-46.5468 276.3576,-55.0753Z" style="fill:url(#_Linear3);fill-rule:nonzero;"/><path d="M-0,1440l-1.2518,-178.0907c28.0991,0.6055 55.6902,1.8695 81.4551,4.125c42.7993,3.0214 86.6057,7.9693 128.1386,18.8443c51.2571,13.4207 97.8471,30.6621 151.0264,35.5479c67.0436,6.1586 131.4621,-7.3414 197.355,-17.8414c111.9514,-16.6629 263.132,-25.2043 395.0014,-22.9371c135.0131,2.3212 273.8544,14.9214 415.0772,36.8642c65.295,9.8721 130.3768,21.5487 213.1421,43.1651c44.3043,11.5713 145.1721,51.8807 178.7936,80.3229l-1758.7377,0Z" style="fill:url(#_Linear4);fill-rule:nonzero;"/><path d="M0,1261.9367l-1.2518,-326.2818c107.7113,-20.0164 216.0805,-36.3352 324.9137,-48.9256c176.1579,-21.3857 444.4436,-46.9843 618.8593,-13.3564c65.865,14.9443 130.9929,32.9721 195.1671,54.0236c116.9486,37.4421 240.7864,81.915 363.735,90.5721c44.2007,3.1114 84.855,-0.945 128.6657,-6.8379c162.1629,-14.1879 328.4057,12.9493 487.8771,40.9714c94.6714,16.6393 187.6071,43.8407 284.7643,31.905c56.9357,-6.9921 101.4909,-21.6921 157.2695,-34.2814l0,163.1041c-36.736,2.1886 -73.4307,5.0838 -110.0623,8.6844c-46.7786,4.4121 -96.9857,12.5829 -143.4643,19.4721c-59.4214,8.8029 -92.5714,29.4536 -154.0714,22.0243c-66.5357,-8.0357 -125.6571,-26.2114 -189.3214,-45.5957c-57.5786,-18.0086 -115.4357,-35.1557 -173.55,-51.4329c-164.505,-45.3193 -327.9707,-79.3629 -498.7864,-88.5171c-146.8736,-7.8707 -281.3914,6.1007 -426.3686,21.9814c-23.5843,3.5979 -47.3207,6.4179 -70.9264,9.8679c-70.2257,10.2621 -140.7964,22.8021 -210.4971,36.0986c-141.3643,27.795 -281.8243,60.0107 -421.1721,96.6c-10.3757,2.67 -78.12,19.0179 -81.4586,23.4086l-0.1179,0.6129c-25.3822,-2.222 -52.5368,-3.4817 -80.2034,-4.0976Z" style="fill:url(#_Linear5);fill-rule:nonzero;"/><path d="M-1.2518,1261.9093l-0,-142.4925c0,0 22.4336,-6.6478 32.4908,-9.3139c71.6721,-18.5636 144.1093,-34.0371 217.11,-46.3779c54.1179,-8.9271 167.417,-14.8373 219.4393,-12.33c61.8164,2.9794 372.3579,30.6986 396.5871,48.0514c-23.5843,3.5979 -47.3207,6.4179 -70.9264,9.8679c-70.2257,10.2621 -140.7964,22.8021 -210.4971,36.0986c-141.3643,27.795 -281.8243,60.0107 -421.1721,96.6c-10.3757,2.67 -78.12,19.0179 -81.4586,23.4086l-0.1179,0.6129c-25.7649,-2.2555 -81.4551,-4.125 -81.4551,-4.125Z" style="fill:#b99c7b;fill-rule:nonzero;"/><path d="M942.5212,873.3729c3.0471,-40.965 13.6371,-82.95 33.0236,-119.4429c68.8286,-129.5593 195.2207,-205.515 343.7057,-194.5757c93.165,7.6307 179.4707,51.9943 239.895,123.3171c60.42,71.2371 89.9507,163.62 82.0564,256.695c-2.1557,27.45 -7.6114,46.4507 -11.1129,71.7643c-43.8107,5.8929 -84.465,9.9493 -128.6657,6.8379c-122.9486,-8.6571 -246.7864,-53.13 -363.735,-90.5721c-64.1743,-21.0514 -129.3021,-39.0793 -195.1671,-54.0236Z" style="fill:#fbf0e3;fill-rule:nonzero;"/><path d="M2222.4019,132.1396c-0.45,-0.1826 10.35,-0.1117 8.15,-1.7872c-4.2936,-3.2699 -7.8857,-3.4804 -13.2214,-4.6965c-8.2929,-1.8915 -49.0071,-6.5492 -50.7643,-9.6514l0.8786,-2.6479c38.3571,-26.4461 249.0857,-16.3011 307.65,-23.5076c27.7502,-2.8252 84.9052,-13.732 84.9052,-13.732l-0,160.332c0,0 -52.8122,-0.9335 -79.1623,-2.7575c-16.7571,-1.2921 -35.8071,-5.3164 -52.1571,-5.4129c-59.7857,-0.3514 -119.4643,-2.9186 -179.2071,-3.4114c-8.3357,-0.0686 -24.7071,0.4607 -28.9071,-7.4764c5.25,-5.2091 41.4549,-2.5811 52.5857,-3.2383c68.3215,-4.034 204.844,-29.403 203.2571,-32.7443c-1.2286,-2.5869 -28.6357,-9.0946 -41.0857,-15.3905c-33.4286,-16.8718 -89.1398,-24.8091 -104.7857,-16.5534c-44.9059,23.6951 -191.0357,8.4178 -245.8929,6.408c-16.3914,-0.6005 -146.4857,-7.2257 -156.1714,-14.5121c14.1214,-7.5677 67.4786,-5.2106 84.3,-3.8623c24.45,1.9592 60.8036,-4.286 86.2714,-4.1029c47.1643,0.339 76.3428,1.6477 123.3571,-1.2554Z" style="fill:#f2bc9d;fill-rule:nonzero;"/><path d="M53.4177,489.24c18.1133,-2.4716 88.3178,-3.7164 137.2607,2.83c16.7786,2.2457 61.2,17.6279 80.4986,19.9572c50.0979,6.0471 100.1421,6.405 149.9207,13.8643c12.9236,1.9371 29.205,3.4714 41.5864,6.93l0.63,2.2371c-7.1443,8.055 -30.2079,12.2164 -33.7971,17.3614c36.51,4.4893 78.6686,1.68 115.9843,4.17c86.6079,5.7793 173.6614,7.3114 260.3507,10.4743c36.2786,1.3243 115.4092,4.7895 114.9493,7.6436c-0.6093,3.7807 -61.2064,5.2264 -91.6736,6.3514c-44.4086,1.6393 -92.4702,6.9703 -137.4893,7.9529c-71.8189,1.5675 -293.4243,1.4521 -293.4243,1.4521c-71.4536,0.675 -134.8117,-3.9076 -206.6336,-7.3993c-24.9479,-1.2129 -70.7157,-4.7464 -105.2571,-9.5421c-10.1953,-1.4155 -52.6136,-0.0645 -86.3234,-1.7452l-0,-16.6449c20.2503,-3.0746 42.7772,-8.9804 49.8734,-10.8285c32.6764,-8.5093 101.1176,-14.6668 100.8386,-19.8829c-0.0745,-1.3923 -30.9725,2.1298 -70.079,-10.5976c-27.1053,-8.8216 -80.9684,-10.5952 -81.8847,-13.1746c1.1171,-5.3157 36.2246,-8.8925 54.6694,-11.4093Z" style="fill:#f2bc9d;fill-rule:nonzero;"/><path d="M2269.6377,564.81c19.7357,-3.0193 80.6143,-5.0593 92.2071,15.405c44.7857,8.445 90.7071,6.6193 136.0286,10.5493c6.9159,0.6005 31.7589,3.5859 62.1266,7.451l0,48.6842c-11.5195,0.1569 -22.9225,0.464 -34.0981,1.2377c-130.8,9.0536 -261.5357,8.595 -392.5286,4.2664c-19.0286,-2.1086 -40.5857,-1.9307 -59.8286,-2.625c-80.9357,-2.9143 -161.8714,0.9707 -242.55,-7.4679c-13.6929,-1.4293 -67.2214,-0.5786 -76.9071,-7.9136c7.9071,-9.2957 81.3857,-8.2757 95.9786,-8.6464l113.2071,-2.2629c62.7214,-0.6407 126.0643,-5.9786 188.9786,-6.0729c30.1071,-0.045 62.0786,-8.2543 92.3786,-8.475c8.0786,-0.06 17.0143,-1.1743 25.1143,-1.9993c-13.4786,-4.2386 -65.4,-6.8571 -63,-24.2271c11.6786,-13.5857 45.2571,-15.7779 62.8929,-17.9036Z" style="fill:#f2bc9d;fill-rule:nonzero;"/><path d="M0,225.705l-1.2518,-89.0476c34.4679,2.9886 66.2002,8.1373 74.1689,15.5668c2.0186,1.8827 1.6179,2.5592 1.7314,5.1928c-6.6964,9.2736 -21.8893,10.6744 -33.1671,13.3496c22.7914,7.3689 52.89,10.0892 76.4314,12.9913c27.9579,3.4468 116.2436,0.3332 135.2914,15.1256l-0.3664,5.5545c5.0786,5.7049 176.8779,2.4392 206.9379,11.4814c-57.5679,0.585 -118.2043,7.815 -175.9779,13.3071c-47.88,1.0436 -70.6886,4.2 -121.23,1.8943c-24.5079,-1.1079 -48.9964,-2.55 -73.4636,-4.3286c-28.8,-2.2993 -60.5614,-6.7914 -89.1043,-1.0871Z" style="fill:#f2bc9d;fill-rule:nonzero;"/></g><g><rect x="0" y="0" width="2560" height="1440" style="fill:url(#_Radial6);"/><circle cx="1258.019" cy="605.4018" r="165.634" style="fill:#fef6ee;"/><g><path d="M0,631.6323l0,808.3677l2560,0l0,-962.9003c0,0 -59.9477,-5.3287 -115.0111,12.4337c-55.0634,17.7624 -181.02,103.0247 -292.191,111.9028c-69.9902,5.5894 -195.6347,-30.3736 -251.3373,-27.5316c-87.0356,4.4406 -178.767,54.1829 -273.5404,67.497c-62.2945,8.7513 -96.8049,-5.3288 -150.092,-6.2169c-53.2871,-0.8881 -104.8935,15.7403 -174.9592,-1.7762c-78.1544,-19.5386 -184.7004,-55.0634 -266.4354,-56.8396c-75.4722,-1.6401 -213.6523,29.3579 -291.3026,20.4267c-85.8738,-9.877 -214.9245,-50.6226 -288.6383,-51.5107c-61.3336,-0.739 -233.575,44.4058 -285.974,58.6157c-52.399,14.2099 -170.5187,27.5317 -170.5187,27.5317Z" style="fill:#cfb5b6;"/><path d="M-1.2518,736.4302l0,703.5698l2563.4721,0.7907l-2.6642,-745.5426c0,0 -41.6259,14.9368 -117.2317,12.7624c-96.7689,-2.7831 -159.8614,-32.8604 -278.8691,-30.196c-119.0078,2.6644 -289.4699,91.1802 -397.8767,96.8049c-157.9349,8.1944 -255.6475,-81.2835 -357.0234,-76.3781c-110.1267,5.3288 -232.906,75.3292 -436.066,79.9305c-173.4138,3.9276 -423.211,-98.1512 -538.1995,-115.4553c-114.9274,-17.2948 -222.0295,-0.0001 -314.3937,31.9722c-57.8663,20.0307 -121.1477,41.7415 -121.1477,41.7415Z" style="fill:#bb9e98;"/><path d="M2560,897.1795l0,542.8205l-2561.2518,0l0,-414.9315c0,0 185.0922,-63.0563 328.0792,-56.8395c142.987,6.2168 337.4849,3.5524 427.1848,-15.098c89.6999,-18.6505 263.1546,-38.6979 420.0797,-63.0564c297.5195,-46.1821 672.2139,-45.294 883.6774,-45.294c285.0858,0 502.2307,52.3989 502.2307,52.3989Z" style="fill:#e59a7a;"/><path d="M-1.2518,891.8508l0,548.1492l2561.2518,0l0,-223.9861c0,0 -369.0132,-2.6645 -522.6575,-16.8743c-153.6443,-14.2098 -214.0362,-1.7762 -297.5194,-23.091c-83.4832,-21.3148 -96.1287,-73.8639 -275.3167,-162.5256c-132.3747,-65.4986 -414.5156,-85.0956 -476.0311,-93.2524c-160.7493,-21.3149 -379.3058,-65.5514 -549.7451,-71.0494c-220.2532,-7.1049 -439.982,42.6296 -439.982,42.6296Z" style="fill:#c26f61;"/><path d="M2560,1110.3278l0,330.261l-2561.2518,0.2169l0,-316.268c0,0 399.1286,20.4266 560.7661,23.091c161.6374,2.6644 305.5126,-20.4268 448.4996,-58.6158c142.987,-38.189 303.7362,-59.5039 523.1014,-31.9722c219.3652,27.5317 257.5685,33.63 322.3868,51.5109c77.2664,21.3148 175.8474,29.3078 383.6669,27.5316c159.8949,-1.3666 322.8309,-25.7554 322.8309,-25.7554Z" style="fill:#c7966e;"/><path d="M-1.2518,1303.0494c0,0 314.8944,-69.3689 539.4512,-77.2662c113.4179,-3.9888 285.9805,2.4367 426.0695,26.319c135.2871,23.0636 252.0547,69.9411 329.7189,64.269c158.085,-11.5454 333.9324,-63.9445 613.6896,-39.0771c136.4804,12.1316 298.602,31.9134 425.225,52.6325c132.9285,21.7509 227.0976,44.1723 227.0976,44.1723l0,68.6919l-2561.2518,-2.7907l0,-136.9506Z" style="fill:#d88261;"/></g><g><path d="M1375.7976,116.5601c-8.0049,-4.11 -25.8899,-5.996 -8.4199,-14.9721c59.1191,-30.3753 165.1799,-1.4566 215.2417,-29.7353c31.6948,-17.9036 34.1643,-1.5866 39.3356,-1.2663c2.9577,0.1832 55.3819,-32.8898 122.2933,-19.0189c47.3495,9.8157 18.8757,41.0669 28.0279,46.0355c0.0586,0.0318 40.1593,3.9408 29.2294,15.1714c-4.9963,5.1338 -68.9184,19.3208 -24.5697,17.1703c44.8985,-2.1771 139.4439,-19.9103 101.2046,19.35c-14.5991,14.9889 69.1341,9.736 123.8725,28.7096c16.8675,5.8467 12.4134,16.5167 -4.8498,21.0098c-96.8228,25.2002 -339.7873,-8.4211 -462.79,3.5362c-138.0697,13.422 -163.1392,13.4693 -247.4571,11.561c-49.9849,-1.1313 -52.4842,-5.2301 -50.0661,-8.4947c5.0408,-6.8056 8.2796,3.8083 105.2094,-11.7543c98.0734,-15.7462 111.5401,3.3459 112.7829,-13.1253c1.6327,-21.6389 117.295,-2.4056 103.7604,-16.5307c-3.9407,-4.1125 -42.4811,2.9406 -45.7094,-11.1821c-1.3136,-5.7465 -40.314,-14.9802 -95.8634,-6.7688c-87.7164,12.9664 -94.5567,3.1251 -120.5593,13.2625c-17.2917,6.7414 -27.9604,10.9007 -231.892,-6.8073c-5.0638,-0.4397 -4.7786,-5.5466 2.5161,-6.1787c7.3602,-0.6378 7.2593,2.6646 92.3379,-1.2941c23.9623,-1.115 130.1946,1.624 60.074,-7.3859c-1.2034,-0.1546 -28.2046,-3.6241 -12.9864,-7.8329c96.4648,-26.6792 163.5895,-0.7866 168.7165,-11.6164c0.2747,-0.5803 0.2863,-1.2622 0.561,-1.8425Z" style="fill:#f2d19d;"/><path d="M1024.7848,340.7058c0.6539,0.695 1.3078,1.3901 1.9617,2.0851c9.762,-0.3098 74.6927,-2.3702 122.0783,1.4074c8.681,0.6921 9.26,6.2726 4.993,6.2628c-9.9907,-0.023 -54.0261,-0.1245 -124.8264,3.7848c-75.1551,4.1497 -74.9095,-2.6656 -102.5369,-3.038c-114.7698,-1.5467 -114.6292,-8.9434 -175.0184,-5.5945c-67.2593,3.7299 -69.436,-5.5655 -77.1265,0.8362c-4.8669,4.0513 18.7091,4.0009 19.6114,4.5705c10.2529,6.473 -21.4548,3.238 -37.4828,4.796c-155.5483,15.1198 -346.1041,4.8103 -370.3905,0.9617c-5.2415,-0.8306 -5.2792,-5.3827 0.4553,-5.5826c3.8137,-0.133 30.4102,-1.0603 47.6452,-2.2817c2.6175,-0.1855 4.2537,-4.5089 -0.3496,-4.9495c-156.7525,-15.0028 -273.6269,-11.7198 -281.2786,-23.5695c-6.9058,-10.6945 21.3883,1.9252 56.7544,-16.3243c55.6853,-28.7345 79.1533,19.9326 109.4113,-13.3145c41.6175,-45.7288 76.8475,13.463 111.556,-30.7734c37.2571,-47.4845 86.6209,-0.046 106.1973,-1.7027c27.9497,-2.3652 29.2326,-3.8135 58.0848,14.2176c24.4423,15.2751 22.9993,-8.7805 44.4821,-10.9355c30.5112,-3.0606 20.7324,25.8141 39.931,24.2593c55.4409,-4.4899 55.4044,2.6989 67.6255,1.1305c11.7262,-1.5049 91.0134,-11.6805 147.3161,11.7037c22.5178,9.3523 -11.1153,10.7114 -12.341,12.43c-13.3034,18.6529 92.6876,-12.4273 184.6716,10.9578c46.2865,11.7674 48.388,1.3428 70.7591,10.8282c9.8064,4.1579 -3.1791,2.2212 -12.1834,7.8347Z" style="fill:#f2d29e;"/><path d="M2446.3184,374.5718c1.0937,15.909 -29.4355,22.0907 -47.9583,24.1782c-57.9231,6.5278 -57.5998,9.9374 -106.2823,8.6345c-150.5421,-4.029 -160.104,-42.8109 -402.381,-8.0018c-87.4634,12.5663 -281.7981,-0.5788 -287.6783,-3.0115c-27.2336,-11.267 215.2473,-16.9937 217.0442,-18.3868c7.6071,-5.8975 -23.782,-3.9003 -44.0453,-10.0866c-22.3761,-6.8314 58.2242,-15.9853 87.0526,-19.4985c82.85,-10.0966 160.2163,17.2452 168.8655,4.5845c1.1857,-1.7357 -5.5115,-19.132 81.3198,-30.5608c41.5533,-5.4693 50.1513,25.1529 72.7131,14.5881c42.0995,-19.7136 49.0842,22.189 96.7177,-4.0325c4.6012,-2.5329 39.2203,-21.5901 65.1024,-8.4894c18.7259,9.4785 13.714,21.1579 13.5342,24.3106c-0.1664,2.9173 -0.3409,5.9776 34.1729,12.8975c1.2714,0.2549 51.0296,1.3375 51.8228,12.8744Z" style="fill:#f2d29d;"/></g></g></g><defs><linearGradient id="_Linear2" x1="0" y1="0" x2="1" y2="-0.001" gradientUnits="userSpaceOnUse" gradientTransform="matrix(-1.35808,-1082.871074,842.644884,-1.74525,1279.474668,1085.0505)"><stop offset="0" style="stop-color:#f3bf9c;stop-opacity:1"/><stop offset="1" style="stop-color:#f7ebdd;stop-opacity:1"/></linearGradient><linearGradient id="_Linear3" x1="0" y1="0" x2="1" y2="0" gradientUnits="userSpaceOnUse" gradientTransform="matrix(-117.145393,-666.837879,666.837879,-117.145393,1547.932629,1664.381764)"><stop offset="0" style="stop-color:#e6926b;stop-opacity:1"/><stop offset="1" style="stop-color:#e9b293;stop-opacity:1"/></linearGradient><linearGradient id="_Linear4" x1="0" y1="0" x2="1" y2="0" gradientUnits="userSpaceOnUse" gradientTransform="matrix(1.587,186.015664,-186.015664,1.587,661.715101,1256.782843)"><stop offset="0" style="stop-color:#c77660;stop-opacity:1"/><stop offset="1" style="stop-color:#c58d82;stop-opacity:1"/></linearGradient><linearGradient id="_Linear5" x1="0" y1="0" x2="1" y2="0" gradientUnits="userSpaceOnUse" gradientTransform="matrix(-270.13275,-1003.296986,1003.296986,-270.13275,1372.305322,1608.001886)"><stop offset="0" style="stop-color:#978488;stop-opacity:1"/><stop offset="1" style="stop-color:#ceb8b0;stop-opacity:1"/></linearGradient><radialGradient id="_Radial6" cx="0" cy="0" r="1" gradientUnits="userSpaceOnUse" gradientTransform="matrix(-1280.625881,-15.760608,15.760608,-1280.625881,1279.374119,554.916854)"><stop offset="0" style="stop-color:#fed1bc;stop-opacity:1"/><stop offset="0.5" style="stop-color:#feede5;stop-opacity:1"/><stop offset="0.77" style="stop-color:#fdefe2;stop-opacity:1"/><stop offset="1" style="stop-color:#faf6d9;stop-opacity:1"/></radialGradient></defs></svg>