<?xml version="1.0" encoding="UTF-8" standalone="no"?><!DOCTYPE svg PUBLIC "-//W3C//DTD SVG 1.1//EN" "http://www.w3.org/Graphics/SVG/1.1/DTD/svg11.dtd"><svg width="100%" height="100%" viewBox="0 0 2560 1440" version="1.1" xmlns="http://www.w3.org/2000/svg" xmlns:xlink="http://www.w3.org/1999/xlink" xml:space="preserve" xmlns:serif="http://www.serif.com/" style="fill-rule:evenodd;clip-rule:evenodd;stroke-linejoin:round;stroke-miterlimit:2;"><rect id="Artboard1" x="0" y="0" width="2560" height="1440" style="fill:none;"/><clipPath id="_clip1"><rect id="Artboard11" serif:id="Artboard1" x="0" y="0" width="2560" height="1440"/></clipPath><g clip-path="url(#_clip1)"><g><rect x="0" y="0" width="2560" height="1440" style="fill:url(#_Linear2);"/><ellipse cx="1280" cy="813.6434" rx="396.3018" ry="384.3567" style="fill:#fbf4ae;"/><path d="M0,1023l0,417l2560,0l0,-309c0,0 -372.3924,40 -481.3924,20c-109.0001,-20 -379.0001,-85 -453,-103c-73.9999,-18 -163.8212,-25.7443 -222,-42c-68.0002,-19 -254.2025,-85.5842 -336,-98c-112,-17 -292.3552,-14.1108 -490,15c-136.3034,20.0759 -246,33.9999 -315,57c-51.0882,17.0294 -174.9417,40.1495 -262.6076,43Z" style="fill:#ddefc7;"/><path d="M0,1110l0,330l2560,0l0,-439c-57.232,18.8333 -193.3926,56.0001 -265.3925,72c-41.9306,9.3179 -89.9998,19 -143.9999,11c-54.0001,-8 -277.9999,-58 -387,-63c-109.0001,-5 -320,28 -371,41c-51.0001,13 -134.0001,60.0001 -208,57c-73.9999,-3 -145.9999,-23 -187.9999,-31c-42,-8 -237.2052,-25.2745 -278,-31.0001c-57,-8 -140,4 -212,16.0001c-66.7622,11.1271 -188,48 -233,58c-45,10 -105,12 -163,-2c-32.6046,-7.8701 -110.6076,-19 -110.6076,-19Z" style="fill:#51764d;"/><path d="M617.2982,1173.9999c60.358,-14.064 371.9309,-82.1381 612.7017,-94.6666c307.813,-16.0171 539.2982,76 671.2984,112c110.7907,30.2156 171.3165,34 221.9832,18c46.5642,-14.7045 150.6665,-28.6666 204.6665,-29.3333c42.8506,-0.529 124.4805,4.7423 147.3334,2c33.3332,-4 84.7186,1.3334 84.7186,1.3334l0,256.6667l-1535.3853,0c0,0 -983.3976,-0.6666 -1003.3976,0c-20,0.6666 64,-124 280.6668,-190.6667c86.3993,-26.5844 246.7478,-59.3333 315.4144,-75.3334Z" style="fill:#3c6346;"/><path d="M0,1229.3333c0,0 234.4989,-14.8616 342.6666,-12c126,3.3333 205.3334,28.0002 265.3333,44.6667c64.5165,17.9211 228.6668,-31.3333 378.0001,-34c29.0058,-0.518 125.6555,0.1483 168.8716,3.2725c143.8128,10.3967 234.4645,23.728 325.7951,39.3941c110.0509,18.8772 233.3961,57.3413 289.3335,91.3333c35.9121,21.8231 67.9433,49.9313 87.957,78l-1857.9573,0.0027l0,-210.6694Z" style="fill:#2f5543;"/><path d="M80.9685,360.4999c4.7612,4.023 41.1801,7.8221 107.3333,10c81,2.6667 121.6666,-15 159.9999,-13c31.0223,1.6186 82.6587,7.4285 124.6667,8c49,0.6666 111.8857,-5.5495 136.6666,-9c26.3333,-3.6666 65.6627,-3.7906 69.3333,-7c3.2622,-2.8523 -60,-4 -91,-4.6667c-28.9933,-0.6235 -59.026,0.2542 -69.9999,-1c-11.6667,-1.3334 4.6665,-5.3334 -6.0001,-9.6667c-7.2359,-2.9396 -62.7666,-5.9522 -98.9999,-8.6666c-34.1307,-2.5569 -71.7095,-5.7996 -62.6667,-11c11.3284,-6.5149 25.952,-9.3755 21.6666,-15c-5.3334,-7 -60.9999,-13.6667 -89.9999,-13.6667c-29,0 -78.3334,-5.3333 -93.3334,1.6667c-15,7 13.6667,21.6667 8.6667,30.6667c-4.6072,8.293 -62.6667,15.6666 -78.6667,19.6667c-16,4 -46.8645,14.8949 -37.6667,22.6667Z" style="fill:#b8cb8b;"/><path d="M337.635,600.8333c-2.7494,2.0552 54.3333,8.6667 74.6666,12c4.0909,0.6706 8.9264,1.2977 13.8946,1.8876c14.8054,1.7577 30.7909,3.1843 31.7721,4.4458c2.3333,3 -41.8376,11.5101 -63,16.3333c-26.8625,6.1224 -46.4379,9.9691 -56.3333,11c-14.175,1.4768 -34,5 -32,6.6667c3.0835,2.5696 29.3334,7 43,6.6667c13.6666,-0.3333 59.3333,1 70.6667,2.3333c11.3333,1.3333 29.05,4.2713 34.3333,5c9.6667,1.3333 34.6982,1.2718 49.6667,2.6667c11.7309,1.0932 35.3895,6.1369 41,7c13,2 51.3334,2 87.3334,-0.6667c23.0237,-1.7055 104.9954,-3.7642 133,-3.3333c43.3333,0.6667 134.6666,-3.6666 176.6666,-4c37.0049,-0.2937 112.0001,-5.6667 115.3334,-7c3.3333,-1.3333 -42.3152,-3.3251 -81.3333,-5.3334c-45.3333,-2.3333 -142.7118,-5.0143 -175.3334,-7c-38.3333,-2.3333 -120.0903,-1.3333 -121.8785,-5.3333c-2.5221,-5.6416 20.3435,-9.294 21.8785,-14.6667c0.6667,-2.3333 -18.307,-5.7947 -31,-8.3333c-16.6667,-3.3333 -36.3333,-4.6667 -55.6667,-5.3333c-19.3333,-0.6667 -59.8341,-6.3644 -75.3334,-10c-27,-6.3333 -68,-14.6666 -87.3333,-15.3333c-19.3333,-0.6667 -41.3333,-2.3333 -68.6667,0.6667c-26.6438,2.9243 -40.5201,6.0688 -45.3333,9.6666Z" style="fill:#b9ca8b;"/><path d="M2078.4685,669.8333c-7.548,7.1649 30.6668,12 40.0001,16.6667c4.9171,2.4586 -30,8.6666 -65.3334,10c-35.3334,1.3334 -193.9999,5.3334 -223.3333,8c-24.5654,2.2332 -86.6667,2 -92,5.3333c-5.3334,3.3333 70.6666,9.0001 96,10.1667c25.3334,1.1666 132.5555,5.5834 192.6666,7.3334c53.2038,1.5489 133.9197,4.4446 168.0001,3.1666c53.3333,-2 131.1494,-8.6749 162.6667,-9.4999c31.2207,-0.8173 77.1741,-6.711 87.9999,-10.5001c13.3333,-4.6667 20.6667,-14.6666 10,-15.3333c-10.6667,-0.6667 -36,-3.3334 -71.3333,-8.6667c-35.3334,-5.3333 -97.3297,-17.2033 -119.3333,-16.6667c-27.3334,0.6667 -53.3332,-2 -61.3333,-6.6667c-8.0001,-4.6666 -35.3335,-15.3333 -62.6667,-11.3333c-27.3333,4 -54.8121,11.1769 -62,18Z" style="fill:#b6ca8b;"/><path d="M2560,245.8333l0,71.3333c-20.9219,6.6667 -57.5317,7.3333 -85.5315,8.6667c-27.9999,1.3333 -93.3333,3.3333 -99.3333,3.3333c-6,0 35.3335,12 48.0001,18c12.6666,6 20,11.3333 3.3333,14.6667c-16.6667,3.3333 -74.6667,10 -94.6667,8c-20,-2 -67.3334,-11.3333 -88,-9.3333c-20.6666,2 -98,0.6666 -112.6666,-0.6667c-14.6666,-1.3333 -38.6668,-1.3333 -42.6667,-5.3333c-3.9999,-4 25.3335,-4 50.6667,-6.6667c22.6297,-2.3821 93.3333,-10 134,-18.6667c13.4418,-2.8646 23.3333,-7.3333 9.3333,-12c-14,-4.6667 -50,-18.6667 -70.6667,-20c-20.6667,-1.3333 -50.6852,8.528 -80.6666,12c-28.5072,3.3013 -99.9333,-1.2839 -128,-4c-41.3334,-4 -124.6667,-11.3333 -134,-13.3333c-9.3333,-2 12.5321,-3.1333 24.6667,-4c18.6667,-1.3333 115.9999,-4.6667 144.6665,-5.3333c24.6691,-0.5737 65.3335,-0.6667 48.0001,-6c-12.9961,-3.9988 -40.1242,-3.9834 -44,-6.6667c-8.6666,-6 42.5022,-12.3624 56.422,-14c22.6665,-2.6667 70.9113,-5.3334 108.2447,-4.6667c27.4021,0.4893 73.3426,-0.9568 91.3334,-4c24.5415,-4.1512 69.3332,-15.3333 118,-13.3333c27.5127,1.1307 113.6096,8.1111 143.5314,12Z" style="fill:#bac88b;"/></g></g><defs><linearGradient id="_Linear2" x1="0" y1="0" x2="1" y2="0" gradientUnits="userSpaceOnUse" gradientTransform="matrix(2.999878,1124.499962,-1124.499962,2.999878,905.968326,0)"><stop offset="0" style="stop-color:#cce5ab;stop-opacity:1"/><stop offset="1" style="stop-color:#f3eea5;stop-opacity:1"/></linearGradient></defs></svg>