<svg width="136" height="33" viewBox="0 0 136 33" fill="none" xmlns="http://www.w3.org/2000/svg">
<path d="M43.776 10.2H47.832V27H43.776V10.2ZM46.32 13.536V10.2H49.608C51.032 10.2 52.224 10.424 53.184 10.872C54.16 11.304 54.896 11.928 55.392 12.744C55.888 13.56 56.136 14.544 56.136 15.696C56.136 16.816 55.888 17.792 55.392 18.624C54.896 19.44 54.16 20.072 53.184 20.52C52.224 20.952 51.032 21.168 49.608 21.168H46.32V17.832H49.608C50.424 17.832 51.064 17.648 51.528 17.28C51.992 16.912 52.224 16.384 52.224 15.696C52.224 14.992 51.992 14.456 51.528 14.088C51.064 13.72 50.424 13.536 49.608 13.536H46.32ZM63.2586 27.24C61.9786 27.24 60.8666 27.008 59.9226 26.544C58.9946 26.064 58.2746 25.392 57.7626 24.528C57.2506 23.664 56.9946 22.648 56.9946 21.48C56.9946 20.296 57.2426 19.272 57.7386 18.408C58.2346 17.544 58.9466 16.88 59.8746 16.416C60.8186 15.952 61.9306 15.72 63.2106 15.72C64.4906 15.72 65.5706 15.944 66.4506 16.392C67.3306 16.824 68.0026 17.456 68.4666 18.288C68.9306 19.12 69.1626 20.128 69.1626 21.312C69.1626 21.488 69.1626 21.664 69.1626 21.84C69.1626 22 69.1466 22.136 69.1146 22.248H59.0346V20.232H65.8506L64.9866 21.336C65.0666 21.224 65.1306 21.088 65.1786 20.928C65.2426 20.752 65.2746 20.608 65.2746 20.496C65.2746 20.016 65.1866 19.6 65.0106 19.248C64.8346 18.896 64.5866 18.624 64.2666 18.432C63.9466 18.24 63.5706 18.144 63.1386 18.144C62.5946 18.144 62.1386 18.264 61.7706 18.504C61.4026 18.744 61.1226 19.112 60.9306 19.608C60.7546 20.088 60.6586 20.696 60.6426 21.432C60.6426 22.104 60.7386 22.68 60.9306 23.16C61.1226 23.64 61.4106 24.008 61.7946 24.264C62.1786 24.504 62.6506 24.624 63.2106 24.624C63.8506 24.624 64.3946 24.504 64.8426 24.264C65.3066 24.024 65.6746 23.664 65.9466 23.184L69.1866 23.976C68.6106 25.064 67.8266 25.88 66.8346 26.424C65.8586 26.968 64.6666 27.24 63.2586 27.24ZM70.1044 15.96H77.4964V18.96H70.1044V15.96ZM72.0484 12.12H75.5284V27H72.0484V12.12ZM90.9163 18.432L89.9083 27H85.6363L88.3483 9.36L95.5003 19.608L102.676 9.36L105.388 27H101.116L100.108 18.432L95.5003 25.44L90.9163 18.432ZM110.419 23.544C110.419 23.832 110.491 24.08 110.635 24.288C110.779 24.48 110.971 24.632 111.211 24.744C111.451 24.84 111.715 24.888 112.003 24.888C112.419 24.888 112.803 24.8 113.155 24.624C113.507 24.448 113.795 24.184 114.019 23.832C114.243 23.48 114.355 23.048 114.355 22.536L114.739 23.976C114.739 24.68 114.547 25.28 114.163 25.776C113.779 26.256 113.283 26.624 112.675 26.88C112.067 27.12 111.411 27.24 110.707 27.24C110.003 27.24 109.347 27.112 108.739 26.856C108.147 26.584 107.667 26.184 107.299 25.656C106.947 25.128 106.771 24.488 106.771 23.736C106.771 22.68 107.147 21.848 107.899 21.24C108.651 20.616 109.715 20.304 111.091 20.304C111.763 20.304 112.363 20.368 112.891 20.496C113.435 20.624 113.899 20.784 114.283 20.976C114.667 21.168 114.955 21.368 115.147 21.576V23.184C114.763 22.896 114.315 22.68 113.803 22.536C113.307 22.376 112.779 22.296 112.219 22.296C111.787 22.296 111.443 22.344 111.187 22.44C110.931 22.536 110.739 22.68 110.611 22.872C110.483 23.048 110.419 23.272 110.419 23.544ZM108.811 19.344L107.587 16.92C108.211 16.616 108.963 16.328 109.843 16.056C110.723 15.784 111.683 15.648 112.723 15.648C113.699 15.648 114.571 15.792 115.339 16.08C116.107 16.352 116.715 16.752 117.163 17.28C117.611 17.808 117.835 18.456 117.835 19.224V27H114.355V20.04C114.355 19.768 114.307 19.536 114.211 19.344C114.131 19.136 114.003 18.96 113.827 18.816C113.651 18.672 113.427 18.568 113.155 18.504C112.899 18.44 112.603 18.408 112.267 18.408C111.771 18.408 111.283 18.464 110.803 18.576C110.339 18.688 109.931 18.824 109.579 18.984C109.227 19.128 108.971 19.248 108.811 19.344ZM124.149 32.28H120.525V15.96H124.149V32.28ZM133.173 21.48C133.173 22.76 132.917 23.84 132.405 24.72C131.909 25.6 131.261 26.264 130.461 26.712C129.677 27.16 128.829 27.384 127.917 27.384C126.957 27.384 126.125 27.144 125.421 26.664C124.733 26.168 124.205 25.48 123.837 24.6C123.469 23.704 123.285 22.664 123.285 21.48C123.285 20.28 123.469 19.24 123.837 18.36C124.205 17.48 124.733 16.8 125.421 16.32C126.125 15.824 126.957 15.576 127.917 15.576C128.829 15.576 129.677 15.8 130.461 16.248C131.261 16.696 131.909 17.36 132.405 18.24C132.917 19.104 133.173 20.184 133.173 21.48ZM129.357 21.48C129.357 20.904 129.237 20.416 128.997 20.016C128.757 19.616 128.437 19.312 128.037 19.104C127.637 18.896 127.197 18.792 126.717 18.792C126.301 18.792 125.893 18.896 125.493 19.104C125.109 19.296 124.789 19.592 124.533 19.992C124.277 20.392 124.149 20.888 124.149 21.48C124.149 22.072 124.277 22.568 124.533 22.968C124.789 23.368 125.109 23.672 125.493 23.88C125.893 24.072 126.301 24.168 126.717 24.168C127.197 24.168 127.637 24.064 128.037 23.856C128.437 23.648 128.757 23.344 128.997 22.944C129.237 22.544 129.357 22.056 129.357 21.48Z" fill="black"/>
<path fill-rule="evenodd" clip-rule="evenodd" d="M30.5094 19.4041C22.5423 20.0399 27.1975 8.04275 32.7962 10.2801C36.0587 11.5839 36.0165 17.7748 30.5094 19.4041ZM16.1786 5.97242C15.8277 14.6031 5.68515 11.5904 7.28326 3.66506C8.28971 -1.32604 15.654 -1.51556 16.1786 5.97242ZM23.491 11.1821C15.2127 11.2162 19.1327 -2.54246 25.2214 0.417202C28.9495 2.22937 28.9195 9.9018 23.491 11.1821ZM5.90489 19.4263C-1.68108 19.7891 -1.87066 8.2468 4.83401 10.2977C8.05514 11.283 11.2363 17.6089 5.90489 19.4263ZM23.5038 30.4488C20.7724 30.1782 20.3566 29.0782 18.2136 28.8083C15.9929 28.5287 13.9135 29.7911 13.3048 30.0447C8.83111 31.9089 5.07762 26.7573 7.63782 23.1456C9.90271 19.9506 10.2892 20.1589 11.6442 16.3539C12.8619 12.9343 16.2027 12.101 17.9982 12.3037C23.4372 12.9178 22.8574 17.2372 25.3255 20.6523C26.0956 21.7177 26.968 22.7016 27.0232 22.7718C29.1606 25.4869 28.2108 29.9954 23.5038 30.4488Z" fill="black"/>
</svg>
