<?xml version="1.0" encoding="UTF-8" standalone="no"?><!DOCTYPE svg PUBLIC "-//W3C//DTD SVG 1.1//EN" "http://www.w3.org/Graphics/SVG/1.1/DTD/svg11.dtd"><svg width="100%" height="100%" viewBox="0 0 55 65" version="1.1" xmlns="http://www.w3.org/2000/svg" xmlns:xlink="http://www.w3.org/1999/xlink" xml:space="preserve" xmlns:serif="http://www.serif.com/" style="fill-rule:evenodd;clip-rule:evenodd;stroke-linejoin:round;stroke-miterlimit:2;"><path d="M16.7615,54.6039c1.7934,1.8649 8.4364,8.3847 10.3535,9.6184c0.0402,0.0296 0.2144,0.158 0.2391,0.1751c0.0122,0.0084 0.0404,0.029 0.0685,0.0496c0.0364,0.0265 0.074,0.053 0.074,0.053c0.0028,0 0.0304,-0.0246 0.035,-0.0274l0.0173,-0.0139c0.0182,-0.0131 0.0681,-0.0556 0.102,-0.0844c0.0172,-0.0146 0.0303,-0.0258 0.033,-0.0277c0.0058,-0.0044 0.032,-0.027 0.0496,-0.0424c1.9395,-1.4985 21.0706,-16.9523 24.8681,-33.2469c0.7534,-3.2325 1.4565,-8.7575 -1.6109,-15.64c-2.7661,-5.6461 -6.2697,-9.4151 -12.2571,-12.3653l-0.3195,-0.1555c-0.0664,-0.0315 -0.6156,-0.2916 -0.8248,-0.405l-0.1468,-0.0403c-0.0919,-0.0347 -0.1579,-0.0579 -0.2121,-0.077c-0.1418,-0.0499 -0.2028,-0.0714 -0.4358,-0.1951l-0.2914,-0.0727l-0.4769,-0.1596c-13.6119,-4.4951 -22.9249,2.7607 -25.1549,4.4981c-0.1897,0.1477 -0.3281,0.2556 -0.4136,0.3129c-0.6803,0.4562 -2.4261,2.4968 -2.6226,2.7265c-8.2397,9.6316 -5.9196,19.6095 -5.3466,22.0737c0.0431,0.1854 0.0764,0.3283 0.0944,0.4253c0.0084,0.0451 0.8052,2.8747 1.6749,4.6536c2.0038,4.7625 5.9717,10.3558 7.7147,12.3663c0.0627,0.0724 0.1054,0.1252 0.1906,0.2308c0.2174,0.2694 0.7118,0.8822 2.5232,3.0378c0.2876,0.2943 0.4074,0.4471 0.4399,0.4886l0.1452,0.1767c0.3741,0.3948 0.5517,0.6073 0.7247,0.8143c0.1837,0.2197 0.3622,0.4333 0.7653,0.8524Z" style="fill:#141414;"/><path d="M40.5093,29.8329c-7.9671,0.6358 -3.3118,-11.3613 2.2869,-9.124c3.2624,1.3038 3.2202,7.4947 -2.2869,9.124Zm-14.3308,-13.4317c-0.3509,8.6307 -10.4934,5.618 -8.8953,-2.3073c1.0064,-4.9911 8.3707,-5.1806 8.8953,2.3073Zm7.3125,5.2097c-8.2783,0.0341 -4.3583,-13.7246 1.7304,-10.7649c3.728,1.8122 3.6981,9.4846 -1.7304,10.7649Zm-17.5862,8.2442c-7.5859,0.3628 -7.7755,-11.1795 -1.0708,-9.1286c3.2211,0.9853 6.4022,7.3112 1.0708,9.1286Zm17.5989,11.0225c-2.7313,-0.2706 -3.1471,-1.3706 -5.2901,-1.6405c-2.2208,-0.2796 -4.3001,0.9828 -4.9088,1.2364c-4.4737,1.8642 -8.2272,-3.2874 -5.667,-6.8991c2.2649,-3.195 2.6513,-2.9867 4.0063,-6.7917c1.2177,-3.4196 4.5585,-4.2529 6.3541,-4.0502c5.4389,0.6142 4.8591,4.9335 7.3273,8.3486c0.77,1.0654 1.6424,2.0493 1.6977,2.1195c2.1373,2.7151 1.1875,7.2236 -3.5195,7.677Z" style="fill:#fff;"/></svg>